<svg xmlns="http://www.w3.org/2000/svg" viewBox="0 0 512 512"><path d="M296 208c4.422 0 8 3.578 8 8h17.743c6.648-12.4 16.944-23.564 31.622-32H244c-6.627 0-12 5.373-12 12s5.373 12 12 12h52zM327.632 305.89l-.043-.056a72.893 72.893 0 0 1-1.146-1.55l-.168-.234c-.352-.493-.698-.99-1.039-1.493-.073-.107-.144-.215-.216-.323a71.74 71.74 0 0 1-.972-1.488l-.206-.331a68.81 68.81 0 0 1-.948-1.549l-.076-.131a73.175 73.175 0 0 1-1.531-2.737H304c0 4.422-3.578 8-8 8h-52c-6.627 0-12 5.373-12 12s5.373 12 12 12h109.796c-10.225-5.652-19.185-12.952-26.164-22.108zM240.802 264H164c-6.627 0-12 5.373-12 12s5.373 12 12 12h91.999c-7.68-5.77-13.216-14.239-15.197-24zM255.999 224H164c-6.627 0-12 5.373-12 12s5.373 12 12 12h76.802c1.981-9.761 7.517-18.23 15.197-24z" fill="#fff294"/><path d="M319.805 293.071c-.198-.416-.389-.839-.58-1.261-.132-.29-.265-.58-.393-.873a75.16 75.16 0 0 1-.508-1.195c-.138-.33-.275-.661-.409-.995a73.617 73.617 0 0 1-.857-2.246 80.813 80.813 0 0 1-.407-1.141 73.554 73.554 0 0 1-.394-1.175c-.121-.367-.242-.734-.358-1.105-.135-.433-.263-.872-.392-1.311-.1-.342-.204-.682-.3-1.027a78.534 78.534 0 0 1-.441-1.671c-.062-.242-.129-.479-.189-.723a84.685 84.685 0 0 1-.553-2.409c-.061-.286-.115-.578-.174-.865a90.75 90.75 0 0 1-.324-1.649c-.062-.338-.118-.681-.176-1.022a82.124 82.124 0 0 1-.254-1.55c-.055-.359-.105-.722-.156-1.084a92.208 92.208 0 0 1-.717-7.04c-.023-.359-.049-.717-.068-1.08-.033-.618-.057-1.244-.08-1.87-.011-.31-.027-.617-.035-.929-.025-.942-.04-1.891-.04-2.851 0-13.559 2.996-27.414 9.743-40H304c0 4.422-3.578 8-8 8h-40.001c-7.68 5.77-13.216 14.239-15.198 24H272c4.422 0 8 3.578 8 8s-3.578 8-8 8h-31.198c1.982 9.761 7.517 18.23 15.198 24h40c4.422 0 8 3.578 8 8h17.287c-.406-.762-.8-1.535-1.182-2.318-.099-.203-.202-.404-.3-.61z" fill="#fff"/><path d="M244 328h-36c-4.422 0-8 3.578-8 8s3.578 8 8 8h208c.459 0 .906-.047 1.344-.121-22.42-.793-45.044-5.647-63.548-15.879H244zM417.265 168.109A8.106 8.106 0 0 0 416 168H208c-4.422 0-8 3.578-8 8 0 4.422 3.578 8 8 8h145.365c15.868-9.121 36.858-15.048 63.9-15.891z" fill="#ffcf00"/><path d="M168 184h8c4.422 0 8-3.578 8-8 0-4.422-3.578-8-8-8h-8c-4.422 0-8 3.578-8 8 0 4.422 3.578 8 8 8zM176 328h-8c-4.422 0-8 3.578-8 8s3.578 8 8 8h8c4.422 0 8-3.578 8-8s-3.578-8-8-8z" fill="#ff9300"/><path d="M8 248zM0 256zM272 264c4.422 0 8-3.578 8-8s-3.578-8-8-8H80a8 8 0 0 1 0 16H272z" fill="#ffcf00"/><path d="M88 224h16c4.422 0 8-3.578 8-8s-3.578-8-8-8H88c-4.422 0-8 3.578-8 8s3.578 8 8 8z" fill="#ff9300"/><path d="M296 224c4.422 0 8-3.578 8-8s-3.578-8-8-8H136c-4.422 0-8 3.578-8 8s3.578 8 8 8h160z" fill="#ffcf00"/><path d="M104 288H88c-4.422 0-8 3.578-8 8 0 4.422 3.578 8 8 8h16c4.422 0 8-3.578 8-8 0-4.422-3.578-8-8-8z" fill="#ff9300"/><path d="M296 304c4.422 0 8-3.578 8-8 0-4.422-3.578-8-8-8H136c-4.422 0-8 3.578-8 8 0 4.422 3.578 8 8 8h160z" fill="#ffcf00"/><path d="M431.935 168.362c17.647 1.594 33.791 8.443 46.905 18.932-1.714-.126-3.418-.293-5.16-.293-73.494 0-99.68 45.461-99.68 88 0 32.22 12.714 54.121 31.4 68.026-30.733-3.133-60.401-14.37-77.768-37.135 6.979 9.156 15.939 16.456 26.164 22.109 18.504 10.232 41.128 15.086 63.548 15.879 2.222.079 4.442.121 6.656.121 48.523 0 88-39.477 88-88 0-45.85-35.247-83.614-80.065-87.639zM424 168zM428.066 168.097zM325.236 302.557zM323.842 300.416zM325.02 302.235zM327.589 305.834zM319.225 291.81c.191.422.382.845.58 1.261-.198-.416-.389-.839-.58-1.261zM312.154 261.65c.02.362.045.72.068 1.08-.023-.36-.048-.718-.068-1.08zM318.324 289.742zM320.105 293.682a73.175 73.175 0 0 0 0 0zM317.915 288.747zM312.04 258.85c.008.312.024.619.035.929-.011-.309-.027-.616-.035-.929zM312.94 269.769c.051.362.101.725.156 1.084-.055-.36-.106-.722-.156-1.084zM312.604 267.106zM313.35 272.402c.058.341.114.684.176 1.022-.062-.338-.118-.681-.176-1.022zM312.343 264.402zM314.578 278.349c.06.243.127.481.189.723-.063-.243-.13-.48-.189-.723zM313.85 275.074c.059.288.113.58.174.865-.061-.286-.115-.577-.174-.865zM316.651 285.36zM315.207 280.742c.096.345.2.685.3 1.027-.1-.342-.203-.682-.3-1.027zM315.899 283.08c.116.371.237.738.358 1.105-.12-.367-.242-.734-.358-1.105z" fill="#d49e6c"/><path d="M88 256a8 8 0 0 0-8-8H8a8 8 0 0 0 0 16h72a8 8 0 0 0 8-8z" fill="#ff9300"/><path d="M321.743 216c-6.747 12.586-9.743 26.44-9.743 40 0 .96.015 1.909.04 2.851.008.312.024.619.035.929.022.626.046 1.252.08 1.87.02.362.045.72.068 1.08.036.56.075 1.119.12 1.672.031.374.065.745.1 1.116a89.888 89.888 0 0 0 .497 4.252c.051.362.101.725.156 1.084.08.521.166 1.036.254 1.55.058.341.114.684.176 1.022.102.555.212 1.102.324 1.649.059.288.113.58.174.865.174.811.358 1.615.553 2.409.06.243.127.481.189.723.143.56.287 1.119.441 1.671.096.345.2.685.3 1.027.129.439.257.878.392 1.311.116.371.237.738.358 1.105.129.393.259.786.394 1.175a76.564 76.564 0 0 0 .811 2.225c.149.389.299.777.453 1.162.134.334.271.665.409.995.167.4.334.8.508 1.195.128.293.262.582.393.873.191.422.382.845.58 1.261.098.205.201.407.3.611a73.181 73.181 0 0 0 2.713 5.055l.076.131c.309.522.627 1.037.948 1.549.069.11.136.221.206.331.318.501.643.997.972 1.488.072.107.143.216.216.323.341.503.687 1 1.039 1.493l.168.234c.376.522.758 1.04 1.146 1.55l.043.056c17.368 22.765 47.036 34.003 77.768 37.135C386.714 329.121 374 307.22 374 275c0-42.539 26.186-88 99.68-88 1.742 0 3.446.167 5.16.293-13.114-10.489-29.258-17.338-46.905-18.932a89.414 89.414 0 0 0-3.869-.264c-.177-.008-.355-.013-.532-.02A88.197 88.197 0 0 0 424 168c-2.288 0-4.528.041-6.735.109-27.042.843-48.032 6.77-63.9 15.891-14.678 8.436-24.974 19.6-31.622 32z" fill="#b68052"/></svg>